<svg xmlns="http://www.w3.org/2000/svg" width="180.787" height="28.822" viewBox="0 0 180.787 28.822">
  <g id="Group_62" data-name="Group 62" transform="translate(-317.958 -2424.186)">
    <path id="Path_85" data-name="Path 85" d="M319.773,2424.186h25.246a1.776,1.776,0,0,1,2.007,1.837v12.066s-10.144-10.165-11.191-11.191c-.95-.93-1.153.086-1.153.086v1l-2.157-2.2-2.328,2.242v-1.26c-.257-.534-.855-.15-.855-.15L317.959,2438V2425.98A1.808,1.808,0,0,1,319.773,2424.186Zm27.212,15.447v10.829a2.391,2.391,0,0,1-2.547,2.546H320.093c-2.393,0-2.126-2.546-2.126-2.546v-9.411l14.493-14.568,12.6,12.6h-6.29l-6.294-6.221-10.292,10.25v4.705a.938.938,0,0,0,.935.967h18.432a.784.784,0,0,0,.859-.967v-3.9H330.238v-4.286Zm-12.246-.387h-4.5V2435.6l2.254-2.222,2.247,2.247Zm-4.5,5.1h4.5v4.022h-4.5Z" fill="#0a0a0a"/>
    <g id="Group_61" data-name="Group 61">
      <path id="Path_86" data-name="Path 86" d="M363.935,2431.638h2.885a14.754,14.754,0,0,1,4.533.5,6.057,6.057,0,0,1,3.165,2.461,7.473,7.473,0,0,1,1.14,4.172,7.311,7.311,0,0,1-.9,3.681,5.782,5.782,0,0,1-2.346,2.346,8.836,8.836,0,0,1-4.045.758h-4.428Zm2.942,12.6a14.971,14.971,0,0,0,4-.359,4.613,4.613,0,0,0,2.47-1.841,5.668,5.668,0,0,0,.9-3.25,5.963,5.963,0,0,0-.975-3.444,4.9,4.9,0,0,0-2.715-1.958,16.408,16.408,0,0,0-4.305-.4h-.984v11.25Z" fill="#0a0a0a"/>
      <path id="Path_87" data-name="Path 87" d="M386.336,2431.638v1.372H379.75v4.353h6.529v1.362H379.75v5.459h6.529v1.373h-7.92v-13.919Z" fill="#0a0a0a"/>
      <path id="Path_88" data-name="Path 88" d="M389.19,2431.638,393.8,2442.4l4.693-10.758h1.514l-6.056,13.919h-.3l-5.971-13.919Z" fill="#0a0a0a"/>
      <path id="Path_89" data-name="Path 89" d="M410.323,2431.638v1.372h-6.585v4.353h6.529v1.362h-6.529v5.459h6.529v1.373h-7.92v-13.919Z" fill="#0a0a0a"/>
      <path id="Path_90" data-name="Path 90" d="M414.124,2431.638v12.575h5.346v1.344h-6.746v-13.919Z" fill="#0a0a0a"/>
      <path id="Path_91" data-name="Path 91" d="M433.593,2433.4a7.317,7.317,0,0,1-5.175,12.509,7.118,7.118,0,0,1-5.223-2.12,6.972,6.972,0,0,1-2.129-5.128,7.416,7.416,0,0,1,.97-3.719,7.161,7.161,0,0,1,6.268-3.652A7.212,7.212,0,0,1,433.593,2433.4Zm-8.146.057a5.776,5.776,0,0,0-2.157,2.166,6.024,6.024,0,0,0-.776,3.038,5.847,5.847,0,0,0,5.857,5.9,5.944,5.944,0,0,0,2.995-.786,5.624,5.624,0,0,0,2.147-2.148,6.031,6.031,0,0,0,.771-3.028,5.878,5.878,0,0,0-.771-2.994,5.758,5.758,0,0,0-2.171-2.143,5.865,5.865,0,0,0-2.971-.8A5.711,5.711,0,0,0,425.447,2433.455Z" fill="#0a0a0a"/>
      <path id="Path_92" data-name="Path 92" d="M441.271,2431.638a15.951,15.951,0,0,1,3.217.208,3.575,3.575,0,0,1,1.95,1.207,3.894,3.894,0,0,1,.019,4.588,3.634,3.634,0,0,1-2.035,1.216,17.921,17.921,0,0,1-3.538.227h-.994v6.473H438.5v-13.919Zm-1.381,6.084,2.356.028a6.132,6.132,0,0,0,2.091-.26,2.144,2.144,0,0,0,1.041-.842,2.336,2.336,0,0,0,.378-1.3,2.3,2.3,0,0,0-.378-1.282,2.092,2.092,0,0,0-1-.828,6,6,0,0,0-2.03-.246h-2.46Z" fill="#0a0a0a"/>
      <path id="Path_93" data-name="Path 93" d="M451.316,2431.638h.228l5.658,11.421,5.6-11.421h.227l2,13.919h-1.372l-1.363-9.954-4.92,9.954h-.35l-4.987-10.03-1.352,10.03h-1.344Z" fill="#0a0a0a"/>
      <path id="Path_94" data-name="Path 94" d="M475.761,2431.638v1.372h-6.586v4.353H475.7v1.362h-6.529v5.459H475.7v1.373h-7.92v-13.919Z" fill="#0a0a0a"/>
      <path id="Path_95" data-name="Path 95" d="M478.17,2431.638h.3l9.254,10.654v-10.654H489.1v13.919h-.313l-9.178-10.522v10.522H478.17Z" fill="#0a0a0a"/>
      <path id="Path_96" data-name="Path 96" d="M491.109,2431.638h7.636v1.353h-3.1v12.566h-1.419v-12.566h-3.114Z" fill="#0a0a0a"/>
    </g>
  </g>
</svg>
