<?xml version="1.0" encoding="utf-8"?>
<!-- Generator: Adobe Illustrator 27.7.0, SVG Export Plug-In . SVG Version: 6.00 Build 0)  -->
<svg version="1.1" id="Layer_1" xmlns="http://www.w3.org/2000/svg" xmlns:xlink="http://www.w3.org/1999/xlink" x="0px" y="0px"
	 viewBox="0 0 244.9 206" style="enable-background:new 0 0 244.9 206;" xml:space="preserve">
<style type="text/css">
	.st0{fill:#1B3534;}
</style>
<g id="Logo_large" transform="translate(-597.529 -267.58)">
	<g id="Group_72">
		<g id="Group_71">
			<path id="Path_97" class="st0" d="M673.1,430L725,315.7l0.1-0.1c0.2-0.5,1.7-4,12-26.7l9.7-21.3h-5.3l-16.9,37.3
				c-4,6.9-14.6,20.1-26.3,20.7c-11.8,0.4-18.4-5.9-25.6-12.7s-14.5-13.8-27.3-13.8c-1.5,0-3,0.1-4.5,0.3l-14.7-31.8h-28.5
				L673.1,430z M642.9,304c12.1-0.9,18.8,5.3,25.9,12l0.5,0.5c7.5,7.1,15.2,14.5,29,14c6.1-0.3,12.5-3.3,18.5-8.7l-32.5,71.6
				L642.9,304z"/>
			<path id="Path_98" class="st0" d="M768.9,430l51.8-114.3l0.1-0.1c0.2-0.5,1.7-4,12-26.7l9.7-21.3h-5.3l-16.9,37.3
				c-4,6.9-14.6,20.1-26.3,20.7c-11.8,0.4-18.4-5.9-25.6-12.7s-14.5-13.8-27.3-13.8c-1.5,0-3,0.1-4.5,0.3l-14.7-31.8h-28.5
				L768.9,430z M738.7,304c12.1-0.9,18.8,5.3,25.9,12l0.5,0.5c7.5,7.1,15.2,14.5,29,14c6.1-0.3,12.5-3.3,18.5-8.7l-32.5,71.6
				L738.7,304z"/>
		</g>
	</g>
	<g id="Group_74">
		<g id="Group_73">
			<path id="Path_99" class="st0" d="M662.8,473.3h-2.6l-3.4-11.2l-3.4,11.2h-2.6l-4.5-15.1h2.5l3.3,11.4l3.5-11.4h2.3l3.5,11.4
				l3.3-11.4h2.5L662.8,473.3z"/>
			<path id="Path_100" class="st0" d="M685.1,473.3h-11.2v-15.1h11.2v2.2h-8.8v4.3h8.1v2.2h-8.1v4.3h8.8V473.3z"/>
			<path id="Path_101" class="st0" d="M703.8,462.1l-2.4,0.5c-0.3-1.6-1.8-2.8-3.4-2.7c-1.8,0-2.9,1-2.9,2.3c0,1.1,0.6,1.6,1.9,1.9
				l3.3,0.7c2.2,0.5,3.9,1.8,3.9,4.1c0,2.8-2.3,4.6-5.8,4.6c-3.2,0-5.8-1.6-6.2-4.5l2.6-0.5c0.4,1.9,1.9,2.9,3.9,2.9s3.2-1,3.2-2.3
				c0-1.1-0.6-1.7-2.1-2l-3.3-0.7c-1.9-0.4-3.8-1.4-3.8-4.1c0-2.7,2.2-4.5,5.5-4.5C701,457.9,703.2,459.5,703.8,462.1z"/>
			<path id="Path_102" class="st0" d="M717.5,460.4v12.9H715v-12.9h-5.3v-2.2h13v2.2L717.5,460.4z"/>
			<path id="Path_103" class="st0" d="M750.8,473.3h-11.2v-15.1h11.2v2.2H742v4.3h8.1v2.2H742v4.3h8.8L750.8,473.3z"/>
			<path id="Path_104" class="st0" d="M772,473.3h-2l-9.1-10.8v10.8h-2.4v-15.1h2l9.1,11v-11h2.4V473.3z"/>
			<path id="Path_105" class="st0" d="M785.3,458.2c5.1,0,8.3,3.1,8.3,7.5s-3.2,7.5-8.3,7.5H780v-15.1H785.3z M785.3,471.1
				c3.7,0,5.9-2.2,5.9-5.4s-2.2-5.4-5.9-5.4h-2.9v10.7H785.3z"/>
		</g>
	</g>
</g>
</svg>
