<svg xmlns="http://www.w3.org/2000/svg" width="82.208" height="44.584" viewBox="0 0 82.208 44.584">
  <g id="Group_60" data-name="Group 60" transform="translate(-686.936 -2412.097)">
    <g id="Group_57" data-name="Group 57">
      <g id="Group_56" data-name="Group 56">
        <path id="Path_77" data-name="Path 77" d="M720.579,2455.2a32.037,32.037,0,0,1-1.719-4.142l-3.489-9.759h-.556l-4.5,11.739a15.248,15.248,0,0,1-.859,2.048,2.181,2.181,0,0,1-.86.864,2.821,2.821,0,0,1-1.083.274v.135h4.774v-.135a3.97,3.97,0,0,1-.986-.207,1.22,1.22,0,0,1-.859-1.137,4.747,4.747,0,0,1,.4-1.8l.752-2.029a13.1,13.1,0,0,1,3.887-.206,1.976,1.976,0,0,1,1.1,1.182l.11.328v0h0l.166.495a7.09,7.09,0,0,1,.48,1.981,1.12,1.12,0,0,1-.834,1.179,4.059,4.059,0,0,1-.936.207v.135h6.978v-.114a3.384,3.384,0,0,1-.784-.135A1.873,1.873,0,0,1,720.579,2455.2Zm-8.913-4.33,2.34-6.318h.075l1.918,5.727Z"/>
        <path id="Path_78" data-name="Path 78" d="M746.833,2455.906a5.643,5.643,0,0,1-2.882-.7c-1.517-1.045-2.73-2.844-2.73-6.325a8.817,8.817,0,0,1,1.618-5.735,4.213,4.213,0,0,1,3.337-1.592c3.085,0,4.7,2.161,5.663,5.667h.278v-5.44h-.2l-.43.889h-.076c-.707-.754-2.932-1.55-5.157-1.55-3.995,0-7.762,2.549-7.762,7.761s3.641,7.8,7.636,7.8a6.282,6.282,0,0,0,6.219-5.234l-.253-.067C751.03,2455.181,748.755,2455.906,746.833,2455.906Z"/>
        <path id="Path_79" data-name="Path 79" d="M761.459,2441.116c-4.627,0-7.686,3.231-7.686,7.807a7.686,7.686,0,1,0,15.371,0C769.144,2444.347,766.085,2441.116,761.459,2441.116Zm2.326,14.587a3.848,3.848,0,0,1-2.326.616,3.948,3.948,0,0,1-2.326-.616c-1.517-1.091-2.478-2.823-2.478-6.78,0-3.981.961-5.76,2.478-6.826a3.781,3.781,0,0,1,2.326-.615,3.87,3.87,0,0,1,2.326.615c1.491,1.066,2.477,2.845,2.477,6.826C766.262,2452.88,765.3,2454.633,763.785,2455.7Z"/>
        <path id="Path_80" data-name="Path 80" d="M736.707,2455.065l-2.691-4.162a4.487,4.487,0,0,0-2.98-1.115c.784-.047,1.4-.114,1.4-.114a8.25,8.25,0,0,0,2.352-.662c1.055-.544,1.888-1.674,1.82-3.822-.076-2.392-2.351-3.775-5.663-3.775h-7.206v.113a4.749,4.749,0,0,1,.784.135,1.626,1.626,0,0,1,1.138.978,14.555,14.555,0,0,1,.379,4.049v4.37a14.733,14.733,0,0,1-.379,4.074,1.645,1.645,0,0,1-1.138,1,4.153,4.153,0,0,1-.784.114v.114h7.282v-.114a6.156,6.156,0,0,1-.961-.114,1.643,1.643,0,0,1-1.138-1,14.733,14.733,0,0,1-.379-4.074v-1.226h.544a2.818,2.818,0,0,1,1.2.3,4.192,4.192,0,0,1,.948.886l2.506,3.893a3.12,3.12,0,0,0,2.617,1.449h2.915v-.148a4.453,4.453,0,0,1-1.452-.212A2.319,2.319,0,0,1,736.707,2455.065Zm-8.164-10.625a4.114,4.114,0,0,1,.3-2.094,1.831,1.831,0,0,1,1.618-.569h.127c2.528,0,3.236,1.5,3.236,3.506,0,2.885-1.871,4.117-3.818,4.117h-1.466Z"/>
        <path id="Path_81" data-name="Path 81" d="M702.211,2441.425h-.633l-.216.514-4.491,11.124h-.1l-4.754-11.647-2.922.028h-2.158v.141a2.718,2.718,0,0,1,1.713.505,2.06,2.06,0,0,1,.674,1.377v10.9a2.158,2.158,0,0,1-.674,1.441,2.666,2.666,0,0,1-1.7.5v.127h2v0H692.2v-.123a2.715,2.715,0,0,1-1.713-.5,2.141,2.141,0,0,1-.674-1.434v-11.281l.129.3,5.411,13.063h.682l5.208-13.063h.094l.008,10.994a2.157,2.157,0,0,1-.674,1.441,2.4,2.4,0,0,1-1.576.5v.126h3.982v0h3.115v-.122a2.41,2.41,0,0,1-1.575-.505,2.151,2.151,0,0,1-.675-1.44v-10.893a2.151,2.151,0,0,1,.675-1.44,2.409,2.409,0,0,1,1.575-.5v-.122Z"/>
      </g>
    </g>
    <g id="Group_59" data-name="Group 59">
      <g id="Group_58" data-name="Group 58">
        <path id="Path_82" data-name="Path 82" d="M727.671,2412.982a8.659,8.659,0,0,0-3.742-.885h-8.44v.123a2.417,2.417,0,0,1,1.576.5,2.142,2.142,0,0,1,.675,1.433v10.833a2.142,2.142,0,0,1-.675,1.433,2.424,2.424,0,0,1-1.576.5v.122h8.44a8.239,8.239,0,0,0,2.575-.417l-.308-.737a4.555,4.555,0,0,1-2.3.767c-.047,0-.729,0-1.45,0a1.748,1.748,0,0,1-1.748-1.745v-10.664a1.749,1.749,0,0,1,1.748-1.749h1.146a4.622,4.622,0,0,1,3.068,1.095c1.289,1.117,2.174,3.093,2.174,5.984,0,.324-.012.64-.033.939l1.436,3.473a7.516,7.516,0,0,0,1.277-4.412A6.914,6.914,0,0,0,727.671,2412.982Z"/>
      </g>
      <path id="Path_83" data-name="Path 83" d="M723.541,2429.574a2.157,2.157,0,0,1-.674,1.441,2.667,2.667,0,0,1-1.7.5v.127h2v0h3.253v-.123a2.714,2.714,0,0,1-1.713-.5,2.153,2.153,0,0,1-.675-1.44Z"/>
      <rect id="Rectangle_38" data-name="Rectangle 38" width="0.491" height="0.07" transform="translate(723.541 2429.513)"/>
      <path id="Path_84" data-name="Path 84" d="M738.836,2417.255a2.411,2.411,0,0,1,1.575-.5v-.122H735.8l-.215.514-4.492,11.124h-.1l-4.753-11.647-2.923.028h-2.158v.142a4.786,4.786,0,0,1,1.731.383,2.67,2.67,0,0,1,1.194,1.234l.082.189,5.411,13.063h.682l5.209-13.063h.093l.008,10.994a2.158,2.158,0,0,1-.674,1.441,2.4,2.4,0,0,1-1.576.5v.126H737.3v0h3.115v-.122a2.411,2.411,0,0,1-1.575-.5,2.152,2.152,0,0,1-.675-1.44V2418.7A2.152,2.152,0,0,1,738.836,2417.255Z"/>
    </g>
  </g>
</svg>
